<svg width="79" height="89" viewBox="0 0 73 48" fill="none" xmlns="http://www.w3.org/2000/svg">
<path d="M68.3038 40C68.3038 41.0609 67.8295 42.0783 66.9851 42.8284C66.1407 43.5786 64.9956 44 63.8015 44H9.77336C8.57927 44 7.43408 43.5786 6.58972 42.8284C5.74537 42.0783 5.27102 41.0609 5.27102 40V16C5.27102 14.9391 5.74537 13.9217 6.58972 13.1716C7.43408 12.4214 8.57927 12 9.77336 12H15.0501C18.6305 11.9983 22.0637 10.7336 24.5951 8.484L28.332 5.172C29.174 4.42376 30.3153 4.00234 31.5062 4H42.0597C43.2537 4.00023 44.3987 4.4218 45.2428 5.172L48.9708 8.484C50.2252 9.59886 51.7147 10.4832 53.354 11.0865C54.9933 11.6898 56.7503 12.0002 58.5247 12H63.8015C64.9956 12 66.1407 12.4214 66.9851 13.1716C67.8295 13.9217 68.3038 14.9391 68.3038 16V40ZM9.77336 8C7.38517 8 5.09479 8.84285 3.40609 10.3431C1.71738 11.8434 0.768677 13.8783 0.768677 16L0.768677 40C0.768677 42.1217 1.71738 44.1566 3.40609 45.6569C5.09479 47.1571 7.38517 48 9.77336 48H63.8015C66.1897 48 68.48 47.1571 70.1687 45.6569C71.8574 44.1566 72.8062 42.1217 72.8062 40V16C72.8062 13.8783 71.8574 11.8434 70.1687 10.3431C68.48 8.84285 66.1897 8 63.8015 8H58.5247C56.1367 7.99955 53.8467 7.15639 52.1584 5.656L48.4305 2.344C46.7422 0.843605 44.4522 0.000453099 42.0642 0H31.5107C29.1227 0.000453099 26.8327 0.843605 25.1444 2.344L21.4164 5.656C19.7281 7.15639 17.4381 7.99955 15.0501 8H9.77336Z" fill="#257BEA"/>
<path d="M36.7873 36C33.8021 36 30.9391 34.9464 28.8283 33.0711C26.7174 31.1957 25.5315 28.6522 25.5315 26C25.5315 23.3478 26.7174 20.8043 28.8283 18.9289C30.9391 17.0536 33.8021 16 36.7873 16C39.7726 16 42.6356 17.0536 44.7464 18.9289C46.8573 20.8043 48.0432 23.3478 48.0432 26C48.0432 28.6522 46.8573 31.1957 44.7464 33.0711C42.6356 34.9464 39.7726 36 36.7873 36ZM36.7873 40C40.9667 40 44.9748 38.525 47.9301 35.8995C50.8853 33.274 52.5455 29.713 52.5455 26C52.5455 22.287 50.8853 18.726 47.9301 16.1005C44.9748 13.475 40.9667 12 36.7873 12C32.608 12 28.5999 13.475 25.6446 16.1005C22.6894 18.726 21.0292 22.287 21.0292 26C21.0292 29.713 22.6894 33.274 25.6446 35.8995C28.5999 38.525 32.608 40 36.7873 40ZM14.2757 18C14.2757 18.5304 14.0385 19.0391 13.6163 19.4142C13.1941 19.7893 12.6215 20 12.0245 20C11.4274 20 10.8548 19.7893 10.4327 19.4142C10.0105 19.0391 9.77332 18.5304 9.77332 18C9.77332 17.4696 10.0105 16.9609 10.4327 16.5858C10.8548 16.2107 11.4274 16 12.0245 16C12.6215 16 13.1941 16.2107 13.6163 16.5858C14.0385 16.9609 14.2757 17.4696 14.2757 18Z" fill="#257BEA"/>
</svg>
