<svg width="83" height="84" viewBox="0 0 83 84" fill="none" xmlns="http://www.w3.org/2000/svg">
<path d="M31.5012 64.2088H51.644H31.5012ZM41.5748 2V6.44348V2ZM69.0065 13.713L65.959 16.8546L69.0065 13.713ZM80.3689 41.9914H76.0584H80.3689ZM7.0911 41.9914H2.78064H7.0911ZM17.1905 16.8546L14.143 13.713L17.1905 16.8546ZM26.333 57.7035C23.3194 54.5961 21.2673 50.6374 20.4362 46.3278C19.605 42.0182 20.0322 37.5513 21.6636 33.4919C23.295 29.4326 26.0574 25.963 29.6015 23.522C33.1457 21.081 37.3124 19.7781 41.5748 19.7781C45.8372 19.7781 50.0039 21.081 53.548 23.522C57.0921 25.963 59.8545 29.4326 61.4859 33.4919C63.1174 37.5513 63.5445 42.0182 62.7134 46.3278C61.8822 50.6374 59.8301 54.5961 56.8166 57.7035L54.4544 60.1341C53.104 61.5265 52.0328 63.1794 51.3021 64.9985C50.5714 66.8177 50.1954 68.7673 50.1957 70.7363V73.0958C50.1957 75.4527 49.2874 77.7132 47.6707 79.3798C46.0539 81.0464 43.8612 81.9827 41.5748 81.9827C39.2884 81.9827 37.0956 81.0464 35.4789 79.3798C33.8621 77.7132 32.9539 75.4527 32.9539 73.0958V70.7363C32.9539 66.7593 31.4193 62.9424 28.6951 60.1341L26.333 57.7035Z" stroke="#257BEA" stroke-width="4" stroke-linecap="round" stroke-linejoin="round"/>
</svg>
