<svg width="94" height="92" viewBox="0 0 94 92" fill="none" xmlns="http://www.w3.org/2000/svg">
<rect y="7" width="94" height="78" fill="#67A1ED"/>
<path d="M19.8237 26.3901H24.521L19.5381 40.0059C20.9557 37.5938 22.2887 35.499 23.5371 33.7217C24.8066 31.9443 26.055 30.4738 27.2822 29.3101C28.5306 28.1252 29.8001 27.2471 31.0908 26.6758C32.4027 26.0833 33.7992 25.7871 35.2803 25.7871C36.571 25.7871 37.703 25.9987 38.6763 26.4219C39.6707 26.8451 40.4959 27.4375 41.1519 28.1992C41.8289 28.9609 42.3368 29.8813 42.6753 30.9604C43.0138 32.0396 43.1831 33.2244 43.1831 34.5151C43.1831 35.3192 43.109 36.1973 42.9609 37.1494C42.8128 38.0804 42.5378 39.223 42.1357 40.5771C43.5534 38.1227 44.897 35.9751 46.1665 34.1343C47.436 32.2935 48.695 30.7594 49.9434 29.5322C51.2129 28.2839 52.5036 27.3529 53.8154 26.7393C55.1484 26.1045 56.5661 25.7871 58.0684 25.7871C59.3802 25.7871 60.5334 26.0093 61.5278 26.4536C62.5435 26.8979 63.3792 27.4904 64.0352 28.231C64.7122 28.9715 65.2201 29.8496 65.5586 30.8652C65.8971 31.8597 66.0664 32.9071 66.0664 34.0073C66.0664 35.1922 65.8866 36.4935 65.5269 37.9111C65.1883 39.3288 64.7546 40.7887 64.2256 42.291C63.6966 43.7933 63.1253 45.3167 62.5117 46.8613C61.8981 48.3848 61.3268 49.8553 60.7979 51.2729C60.2689 52.6906 59.8245 54.0236 59.4648 55.272C59.1263 56.4992 58.957 57.5783 58.957 58.5093C58.957 59.8 59.3485 60.8791 60.1313 61.7466C60.9354 62.5929 62.1838 63.0161 63.8765 63.0161C66.606 63.0161 69.2402 61.7783 71.7793 59.3027C74.3395 56.8271 77.0055 53.0926 79.7773 48.0991L81.396 45.1792L82.2529 45.7822L80.6025 48.7021C79.1003 51.3682 77.6509 53.7062 76.2544 55.7163C74.8579 57.7052 73.4614 59.3556 72.0649 60.6675C70.6685 61.9793 69.2402 62.9632 67.7803 63.6191C66.3203 64.2751 64.7757 64.603 63.1465 64.603C61.8135 64.603 60.6497 64.402 59.6553 64C58.6608 63.598 57.825 63.0479 57.1479 62.3496C56.4709 61.6514 55.9631 60.8473 55.6245 59.9375C55.286 59.0065 55.1167 58.0226 55.1167 56.9858C55.1167 55.8856 55.286 54.6478 55.6245 53.2725C55.9842 51.8971 56.4285 50.4689 56.9575 48.9878C57.4865 47.5067 58.0578 46.0044 58.6714 44.481C59.285 42.9364 59.8563 41.4447 60.3853 40.0059C60.9142 38.5459 61.348 37.1706 61.6865 35.8799C62.0462 34.568 62.2261 33.4043 62.2261 32.3887C62.2261 31.6904 62.1309 31.0345 61.9404 30.4209C61.75 29.8073 61.4538 29.2783 61.0518 28.834C60.6497 28.3685 60.1419 28.0088 59.5283 27.7549C58.9147 27.501 58.1847 27.374 57.3384 27.374C56.0054 27.374 54.7253 27.7126 53.498 28.3896C52.2708 29.0456 51.0436 30.0295 49.8164 31.3413C48.5892 32.6532 47.3302 34.2718 46.0396 36.1973C44.77 38.1227 43.4264 40.3444 42.0088 42.8623L40.4219 45.687L33.7568 64H29.0596L35.8833 45.1792C36.4334 43.6346 36.9201 42.2487 37.3433 41.0215C37.7876 39.7731 38.1579 38.6517 38.4541 37.6572C38.7503 36.6416 38.9725 35.7318 39.1206 34.9277C39.2687 34.1025 39.3428 33.3408 39.3428 32.6426C39.3428 31.0557 38.9408 29.7861 38.1367 28.834C37.3538 27.8607 36.1266 27.374 34.4551 27.374C33.1221 27.374 31.842 27.702 30.6147 28.3579C29.4087 29.0138 28.1921 29.9871 26.9648 31.2778C25.7376 32.5685 24.4787 34.1872 23.188 36.1338C21.9185 38.0592 20.5643 40.3021 19.1255 42.8623L17.4751 45.7822L10.8101 64H6.11279L19.8237 26.3901Z" fill="white"/>
</svg>
