<svg width="76" height="80" viewBox="0 0 76 80" fill="none" xmlns="http://www.w3.org/2000/svg">
<path d="M42.0963 7.30048e-06C43.2135 7.30048e-06 44.2129 0.731998 44.5891 1.82799L47.2718 9.65589C48.2331 9.90789 49.0577 10.1599 49.7569 10.4239C50.5207 10.7119 51.5048 11.1479 52.7208 11.7439L58.9678 8.26391C59.4777 7.97954 60.0614 7.87689 60.6315 7.97137C61.2015 8.06585 61.727 8.35235 62.1293 8.7879L67.6239 14.7678C68.3534 15.5638 68.5586 16.7278 68.1482 17.7438L65.2185 24.9717C65.7049 25.9117 66.0925 26.7157 66.3889 27.3877C66.7081 28.1197 67.1033 29.1277 67.5745 30.4276L74.4028 33.5076C75.4288 33.9676 76.0634 35.0476 75.995 36.2036L75.4934 44.5035C75.4591 45.0427 75.2752 45.5594 74.9645 45.9896C74.6537 46.4198 74.2299 46.7445 73.7455 46.9234L67.2781 49.3434C67.0919 50.2834 66.8981 51.0874 66.6929 51.7674C66.3619 52.8176 65.9841 53.8507 65.5605 54.8633L68.8094 62.4233C69.0387 62.9544 69.1005 63.5489 68.9856 64.1197C68.8707 64.6905 68.5853 65.2076 68.171 65.5952L61.9925 71.4031C61.5856 71.784 61.0778 72.0249 60.5372 72.0935C59.9966 72.1622 59.449 72.0553 58.9678 71.7871L52.5992 68.2352C51.6028 68.7905 50.5749 69.2808 49.5213 69.7032L46.7398 70.7992L44.2699 77.9991C44.0868 78.5263 43.7567 78.983 43.3227 79.3093C42.8887 79.6355 42.3711 79.816 41.838 79.827L34.6182 79.999C34.0709 80.0142 33.5326 79.8504 33.0773 79.5302C32.6221 79.21 32.2723 78.7491 32.0761 78.2111L29.1654 70.1032C28.1723 69.7459 27.189 69.3591 26.2167 68.9432C25.4214 68.5808 24.6382 68.19 23.8684 67.7712L16.6486 71.0191C16.1729 71.2328 15.6484 71.2962 15.1391 71.2018C14.6297 71.1073 14.1574 70.8591 13.7797 70.4872L8.4371 65.2112C8.03934 64.8201 7.76845 64.3073 7.66275 63.7452C7.55706 63.1832 7.62191 62.6004 7.84813 62.0793L10.9526 54.9593C10.5397 54.116 10.157 53.2568 9.80506 52.3834C9.3943 51.3143 9.01414 50.2325 8.6651 49.1394L1.86333 46.9594C1.31045 46.7835 0.828227 46.4204 0.491541 45.9264C0.154855 45.4324 -0.0174463 44.8351 0.00139633 44.2275L0.267387 36.5436C0.28632 36.0422 0.435101 35.5559 0.697639 35.1371C0.960176 34.7183 1.32648 34.3831 1.75694 34.1676L8.89309 30.5596C9.22368 29.2837 9.51247 28.2917 9.76706 27.5677C10.1255 26.6007 10.5236 25.6505 10.9602 24.7197L7.86712 17.8398C7.63239 17.3173 7.56111 16.73 7.66353 16.1622C7.76594 15.5944 8.03679 15.0754 8.4371 14.6798L13.7721 9.37589C14.1461 9.00459 14.6141 8.75495 15.1197 8.65702C15.6253 8.5591 16.147 8.61705 16.622 8.8239L23.8342 11.9599C24.6321 11.3999 25.3541 10.9479 26.0077 10.5839C26.7867 10.1479 27.8278 9.69189 29.1388 9.1999L31.6467 1.83599C31.8321 1.29707 32.171 0.831523 32.6172 0.502926C33.0633 0.174329 33.5949 -0.00130499 34.1394 7.30048e-06H42.0963ZM40.2344 5.50794H36.0052L33.7062 12.2839C33.5711 12.679 33.3524 13.0366 33.0667 13.3297C32.781 13.6228 32.4358 13.8437 32.0571 13.9758C30.4003 14.5558 29.2034 15.0558 28.5042 15.4438C27.7632 15.8558 26.8171 16.4838 25.6923 17.3238C25.3242 17.5958 24.8968 17.7655 24.4497 17.8172C24.0027 17.869 23.5505 17.8011 23.135 17.6198L16.1812 14.5998L13.4719 17.2958L16.2952 23.5757C16.6372 24.3357 16.6296 25.2157 16.2724 25.9637C15.5125 27.5677 14.9995 28.7517 14.7411 29.4797C14.4827 30.2036 14.1369 31.4476 13.7151 33.1676C13.6197 33.5574 13.4443 33.9205 13.2015 34.2315C12.9586 34.5424 12.654 34.7936 12.3092 34.9676L5.50741 38.4035L5.37061 42.3235L11.5264 44.2915C12.3434 44.5515 12.9893 45.2115 13.2591 46.0595C13.8671 47.9794 14.3535 49.3954 14.7031 50.2834C15.1663 51.4103 15.6786 52.5141 16.2382 53.5914C16.622 54.3433 16.6486 55.2393 16.3104 56.0153L13.4567 62.5673L16.1584 65.2392L22.9298 62.1913C23.2945 62.0272 23.6894 61.9507 24.0857 61.9673C24.4821 61.9839 24.8699 62.0932 25.2211 62.2873C26.6081 63.0552 27.6416 63.5872 28.2952 63.8792C28.9602 64.1712 30.2332 64.6592 32.0799 65.3232C32.4465 65.455 32.781 65.6703 33.0595 65.9538C33.338 66.2372 33.5536 66.5819 33.691 66.9632L36.3813 74.4471L39.9 74.3671L42.1685 67.7512C42.2983 67.3737 42.5045 67.0304 42.7729 66.7451C43.0412 66.4598 43.3653 66.2394 43.7227 66.0992L47.6632 64.5472C48.6587 64.1592 49.8671 63.5472 51.2768 62.7072C51.667 62.4765 52.106 62.3527 52.5535 62.3471C53.001 62.3415 53.4427 62.4543 53.8379 62.6752L59.8303 66.0152L63.2008 62.8512L60.2521 55.9993C60.1007 55.6476 60.022 55.266 60.0214 54.8798C60.0207 54.4936 60.0981 54.1117 60.2483 53.7594C60.9399 52.1314 61.4073 50.9034 61.6429 50.1194C61.8747 49.3514 62.1141 48.2434 62.3458 46.8194C62.4256 46.3358 62.6264 45.8832 62.9276 45.5084C63.2289 45.1337 63.6196 44.8503 64.0596 44.6875L70.3218 42.3475L70.5954 37.7875L64.4396 35.0116C64.1118 34.8647 63.8159 34.6493 63.5696 34.3784C63.3234 34.1075 63.132 33.7867 63.007 33.4356C62.568 32.1606 62.089 30.9012 61.5707 29.6596C61.08 28.5786 60.5475 27.519 59.9747 26.4837C59.7763 26.1179 59.661 25.7087 59.6379 25.2881C59.6148 24.8676 59.6846 24.4471 59.8417 24.0597L62.5966 17.2598L59.6935 14.0998L54.0393 17.2518C53.6702 17.4579 53.2603 17.5699 52.8425 17.579C52.4248 17.588 52.0109 17.4938 51.634 17.3038C50.4339 16.6757 49.2064 16.107 47.9557 15.5998C46.8893 15.2228 45.8017 14.9156 44.6993 14.6798C44.2618 14.5822 43.8551 14.3691 43.5175 14.0605C43.1798 13.7519 42.9222 13.358 42.7689 12.9159L40.2306 5.50394L40.2344 5.50794ZM38.0913 22.5637C47.344 22.5637 54.8487 30.3756 54.8487 40.0075C54.8487 49.6394 47.344 57.4473 38.0913 57.4473C28.8348 57.4473 21.3339 49.6394 21.3339 40.0075C21.3339 30.3756 28.8348 22.5677 38.0913 22.5677V22.5637ZM38.0913 28.0757C31.7569 28.0757 26.6233 33.4156 26.6233 40.0075C26.6233 46.5994 31.7569 51.9434 38.0913 51.9434C44.4219 51.9434 49.5555 46.5994 49.5555 40.0075C49.5555 33.4156 44.4257 28.0757 38.0913 28.0757Z" fill="#257BEA"/>
</svg>
