<svg width="93" height="84" viewBox="0 0 170 133" fill="none" xmlns="http://www.w3.org/2000/svg">
<path d="M89.0963 6.06853e-06C90.2135 6.06853e-06 91.2129 0.608474 91.5891 1.51951L94.2718 8.02646C95.2331 8.23593 96.0577 8.4454 96.7569 8.66485C97.5206 8.90425 98.5048 9.26667 99.7208 9.76209L105.968 6.86937C106.478 6.63299 107.061 6.54767 107.631 6.6262C108.201 6.70473 108.727 6.94289 109.129 7.30494L114.624 12.2758C115.353 12.9374 115.559 13.905 115.148 14.7495L112.219 20.7577C112.705 21.5391 113.093 22.2074 113.389 22.766C113.708 23.3745 114.103 24.2124 114.574 25.293L121.403 27.8532C122.429 28.2356 123.063 29.1333 122.995 30.0942L122.493 36.9935C122.459 37.4417 122.275 37.8713 121.964 38.2289C121.654 38.5865 121.23 38.8564 120.745 39.0051L114.278 41.0167C114.092 41.7981 113.898 42.4664 113.693 43.0316C113.362 43.9046 112.984 44.7634 112.561 45.6052L115.809 51.8893C116.039 52.3309 116.1 52.825 115.986 53.2995C115.871 53.774 115.585 54.2038 115.171 54.526L108.992 59.3539C108.586 59.6705 108.078 59.8707 107.537 59.9278C106.997 59.9848 106.449 59.8959 105.968 59.6731L99.5992 56.7205C98.6028 57.1821 97.5749 57.5896 96.5213 57.9408L93.7398 58.8518L91.2699 64.8367C91.0868 65.275 90.7567 65.6547 90.3227 65.9258C89.8887 66.197 89.3711 66.347 88.838 66.3562L81.6182 66.4992C81.0709 66.5118 80.5326 66.3756 80.0773 66.1094C79.6221 65.8433 79.2723 65.4602 79.0761 65.0129L76.1654 58.2732C75.1723 57.9763 74.189 57.6547 73.2167 57.309C72.4214 57.0078 71.6382 56.6829 70.8684 56.3348L63.6486 59.0347C63.1729 59.2123 62.6484 59.265 62.1391 59.1865C61.6297 59.108 61.1574 58.9016 60.7797 58.5924L55.4371 54.2068C55.0393 53.8817 54.7684 53.4554 54.6628 52.9882C54.5571 52.521 54.6219 52.0366 54.8481 51.6034L57.9526 45.685C57.5397 44.984 57.157 44.2697 56.8051 43.5437C56.3943 42.655 56.0141 41.7558 55.6651 40.8471L48.8633 39.035C48.3105 38.8888 47.8282 38.5869 47.4915 38.1763C47.1549 37.7656 46.9826 37.2692 47.0014 36.7641L47.2674 30.3768C47.2863 29.9601 47.4351 29.5558 47.6976 29.2077C47.9602 28.8596 48.3265 28.5809 48.7569 28.4018L55.8931 25.4027C56.2237 24.342 56.5125 23.5174 56.7671 22.9156C57.1255 22.1118 57.5236 21.3219 57.9602 20.5483L54.8671 14.8293C54.6324 14.395 54.5611 13.9068 54.6635 13.4348C54.7659 12.9628 55.0368 12.5314 55.4371 12.2026L60.7721 7.79371C61.1461 7.48507 61.6141 7.27756 62.1197 7.19615C62.6253 7.11475 63.147 7.16292 63.622 7.33487L70.8342 9.94164C71.6321 9.47614 72.3541 9.10042 73.0077 8.79785C73.7867 8.43543 74.8278 8.05638 76.1388 7.64741L78.6467 1.52616C78.8321 1.07819 79.171 0.691203 79.6172 0.418057C80.0633 0.144911 80.5949 -0.00108477 81.1394 6.06853e-06H89.0963ZM87.2344 4.57848H83.0052L80.7062 10.211C80.5711 10.5394 80.3524 10.8366 80.0667 11.0803C79.781 11.3239 79.4358 11.5076 79.0571 11.6174C77.4003 12.0995 76.2034 12.5152 75.5042 12.8377C74.7632 13.1801 73.8171 13.7022 72.6923 14.4004C72.3242 14.6265 71.8968 14.7675 71.4497 14.8106C71.0027 14.8536 70.5505 14.7971 70.135 14.6465L63.1812 12.1361L60.4719 14.3771L63.2952 19.5973C63.6372 20.2291 63.6296 20.9606 63.2724 21.5823C62.5125 22.9156 61.9995 23.8998 61.7411 24.505C61.4827 25.1068 61.1369 26.1408 60.7151 27.5706C60.6197 27.8946 60.4443 28.1964 60.2015 28.4549C59.9586 28.7134 59.654 28.9222 59.3092 29.0668L52.5074 31.9229L52.3706 35.1814L58.5264 36.8173C59.3434 37.0334 59.9893 37.582 60.2591 38.2869C60.8671 39.8829 61.3535 41.0599 61.7031 41.7981C62.1663 42.7348 62.6786 43.6523 63.2382 44.5478C63.622 45.1729 63.6486 45.9177 63.3104 46.5627L60.4567 52.009L63.1584 54.2301L69.9298 51.6965C70.2945 51.5601 70.6894 51.4965 71.0857 51.5103C71.4821 51.5241 71.8699 51.615 72.2211 51.7763C73.6081 52.4147 74.6416 52.8569 75.2952 53.0996C75.9602 53.3423 77.2332 53.748 79.0799 54.2999C79.4465 54.4095 79.781 54.5884 80.0595 54.8241C80.338 55.0597 80.5536 55.3462 80.691 55.6632L83.3813 61.8842L86.9 61.8177L89.1685 56.3182C89.2983 56.0044 89.5045 55.719 89.7729 55.4819C90.0412 55.2447 90.3653 55.0615 90.7227 54.945L94.6632 53.6549C95.6587 53.3324 96.8671 52.8236 98.2768 52.1254C98.667 51.9336 99.106 51.8306 99.5535 51.826C100.001 51.8214 100.443 51.9152 100.838 52.0988L106.83 54.8751L110.201 52.2451L107.252 46.5494C107.101 46.2571 107.022 45.9398 107.021 45.6188C107.021 45.2978 107.098 44.9803 107.248 44.6875C107.94 43.3342 108.407 42.3134 108.643 41.6618C108.875 41.0234 109.114 40.1023 109.346 38.9187C109.426 38.5166 109.626 38.1404 109.928 37.8289C110.229 37.5174 110.62 37.2818 111.06 37.1465L117.322 35.2014L117.595 31.4109L111.44 29.1034C111.112 28.9813 110.816 28.8022 110.57 28.577C110.323 28.3518 110.132 28.0852 110.007 27.7933C109.568 26.7335 109.089 25.6867 108.571 24.6546C108.08 23.7559 107.548 22.8752 106.975 22.0146C106.776 21.7105 106.661 21.3703 106.638 21.0208C106.615 20.6712 106.685 20.3217 106.842 19.9996L109.597 14.3472L106.694 11.7205L101.039 14.3406C100.67 14.5119 100.26 14.605 99.8425 14.6125C99.4248 14.62 99.0109 14.5417 98.634 14.3838C97.4339 13.8616 96.2064 13.389 94.9557 12.9674C93.8893 12.654 92.8017 12.3986 91.6992 12.2026C91.2618 12.1215 90.8551 11.9443 90.5175 11.6878C90.1798 11.4313 89.9222 11.1039 89.7689 10.7363L87.2306 4.57515L87.2344 4.57848ZM85.0913 18.7561C94.344 18.7561 101.849 25.2498 101.849 33.2563C101.849 41.2628 94.344 47.7531 85.0913 47.7531C75.8348 47.7531 68.3339 41.2628 68.3339 33.2563C68.3339 25.2498 75.8348 18.7594 85.0913 18.7594V18.7561ZM85.0913 23.3379C78.7569 23.3379 73.6233 27.7767 73.6233 33.2563C73.6233 38.7358 78.7569 43.1779 85.0913 43.1779C91.4219 43.1779 96.5555 38.7358 96.5555 33.2563C96.5555 27.7767 91.4257 23.3379 85.0913 23.3379Z" fill="#257BEA"/>
</svg>
